<svg width="20" height="20" viewBox="0 0 20 20" fill="none" xmlns="http://www.w3.org/2000/svg">
    <path d="M14.825 8.725v6.1a3.508 3.508 0 0 1-3.508 3.508H5.175a3.514 3.514 0 0 1-3.508-3.508v-6.1a3.508 3.508 0 0 1 3.508-3.508h6.142a3.514 3.514 0 0 1 3.508 3.508zM4.583 3.333V1.875M7.917 3.333V1.875M11.25 3.333V1.875M18.333 10.967a3.514 3.514 0 0 1-3.508 3.508V7.458a3.508 3.508 0 0 1 3.508 3.509zM1.667 10h12.925" stroke="#5676DC" stroke-width="1.2" stroke-linecap="round" stroke-linejoin="round"/>
</svg>
