<svg width="24" height="24" viewBox="0 0 24 24" fill="none" xmlns="http://www.w3.org/2000/svg">
    <path d="M8 6.75c0-2.206 1.794-4 4-4 2.205 0 4 1.793 4 3.999a3.988 3.988 0 0 1-3.844 3.991h-.008c-.1-.01-.2-.01-.291-.002C9.66 10.639 8 8.896 8 6.75zM7.338 19.967l-.002-.001c-1.108-.739-1.626-1.668-1.626-2.586 0-.918.518-1.857 1.636-2.606 1.257-.831 2.944-1.269 4.666-1.269 1.724 0 3.406.438 4.652 1.269 1.103.735 1.617 1.664 1.626 2.589-.001.927-.52 1.856-1.629 2.605-1.251.84-2.937 1.282-4.661 1.282-1.724 0-3.41-.442-4.662-1.283z" stroke="#8C8C8C" stroke-width="1.5"/>
</svg>
